<mxfile host="app.diagrams.net" modified="2022-04-16T23:54:15.804Z" agent="5.0 (X11)" etag="5R9uWPri9sIXvf3wwdGD" version="17.4.5" type="github">
  <diagram id="nALbFPgCgMVj_nM-MwVf" name="Page-1">
    <mxGraphModel dx="1052" dy="532" grid="1" gridSize="10" guides="1" tooltips="1" connect="1" arrows="1" fold="1" page="1" pageScale="1" pageWidth="850" pageHeight="1100" math="0" shadow="0">
      <root>
        <mxCell id="0" />
        <mxCell id="1" parent="0" />
        <mxCell id="wUgw2yBdjPY-ENgzMGJ1-1" value="&lt;div align=&quot;left&quot;&gt;&lt;span style=&quot;left: 185.31px ; top: 783.44px ; font-size: 18.3271px ; font-family: sans-serif ; transform: scalex(1.02161)&quot; dir=&quot;ltr&quot;&gt;1.2) Una empresa vende productos a varios clientes. Se precisa conocer los datos perso-&lt;/span&gt;&lt;br&gt;&lt;span style=&quot;left: 185.31px ; top: 809.997px ; font-size: 18.3271px ; font-family: sans-serif ; transform: scalex(1.00986)&quot; dir=&quot;ltr&quot;&gt;nales de los clientes (nombres, apellidos, dni, dirección y fecha de nacimiento). Cada&lt;/span&gt;&lt;br&gt;&lt;span style=&quot;left: 185.31px ; top: 836.552px ; font-size: 18.3271px ; font-family: sans-serif ; transform: scalex(1.01369)&quot; dir=&quot;ltr&quot;&gt;producto tiene un nombre y un código, así como un precio unitario. Un cliente puede&lt;/span&gt;&lt;br&gt;&lt;span style=&quot;left: 185.31px ; top: 863.109px ; font-size: 18.3271px ; font-family: sans-serif ; transform: scalex(1.03761)&quot; dir=&quot;ltr&quot;&gt;comprar varios productos a la empresa, y un mismo producto puede ser comprado&lt;/span&gt;&lt;br&gt;&lt;span style=&quot;left: 185.31px ; top: 889.666px ; font-size: 18.3271px ; font-family: sans-serif ; transform: scalex(1.01742)&quot; dir=&quot;ltr&quot;&gt;por varios clientes.&lt;/span&gt;&lt;br&gt;&lt;span style=&quot;left: 185.31px ; top: 916.221px ; font-size: 18.3271px ; font-family: sans-serif ; transform: scalex(0.997176)&quot; dir=&quot;ltr&quot;&gt;Los productos son suministrados por diferentes proveedores. Se debe tener en cuenta&lt;/span&gt;&lt;br&gt;&lt;span style=&quot;left: 185.31px ; top: 942.778px ; font-size: 18.3271px ; font-family: sans-serif ; transform: scalex(1.02386)&quot; dir=&quot;ltr&quot;&gt;que un producto sólo puede ser suministrado por un proveedor, y que un proveedor&lt;/span&gt;&lt;br&gt;&lt;span style=&quot;left: 185.31px ; top: 969.335px ; font-size: 18.3271px ; font-family: sans-serif ; transform: scalex(0.998896)&quot; dir=&quot;ltr&quot;&gt;puede suministrar diferentes productos. De cada proveedor se desea conocer el CUIT,&lt;/span&gt;&lt;br&gt;&lt;span style=&quot;left: 185.31px ; top: 995.891px ; font-size: 18.3271px ; font-family: sans-serif ; transform: scalex(1.01912)&quot; dir=&quot;ltr&quot;&gt;nombre y dirección.&lt;/span&gt;&lt;/div&gt;" style="text;html=1;align=left;verticalAlign=middle;resizable=0;points=[];autosize=1;strokeColor=none;fillColor=none;" vertex="1" parent="1">
          <mxGeometry y="20" width="830" height="160" as="geometry" />
        </mxCell>
        <mxCell id="wUgw2yBdjPY-ENgzMGJ1-30" style="edgeStyle=orthogonalEdgeStyle;rounded=0;orthogonalLoop=1;jettySize=auto;html=1;exitX=1;exitY=0.5;exitDx=0;exitDy=0;entryX=0;entryY=0.5;entryDx=0;entryDy=0;endArrow=none;endFill=0;" edge="1" parent="1" source="wUgw2yBdjPY-ENgzMGJ1-2" target="wUgw2yBdjPY-ENgzMGJ1-29">
          <mxGeometry relative="1" as="geometry" />
        </mxCell>
        <mxCell id="wUgw2yBdjPY-ENgzMGJ1-2" value="Cliente" style="whiteSpace=wrap;html=1;fontSize=16;" vertex="1" parent="1">
          <mxGeometry x="160" y="520" width="80" height="40" as="geometry" />
        </mxCell>
        <mxCell id="wUgw2yBdjPY-ENgzMGJ1-8" style="edgeStyle=orthogonalEdgeStyle;rounded=0;orthogonalLoop=1;jettySize=auto;html=1;exitX=1;exitY=0.5;exitDx=0;exitDy=0;endArrow=none;endFill=0;" edge="1" parent="1" source="wUgw2yBdjPY-ENgzMGJ1-3" target="wUgw2yBdjPY-ENgzMGJ1-2">
          <mxGeometry relative="1" as="geometry" />
        </mxCell>
        <mxCell id="wUgw2yBdjPY-ENgzMGJ1-3" value="Nombre" style="ellipse;whiteSpace=wrap;html=1;align=center;fontSize=12;" vertex="1" parent="1">
          <mxGeometry y="440" width="80" height="40" as="geometry" />
        </mxCell>
        <mxCell id="wUgw2yBdjPY-ENgzMGJ1-9" style="edgeStyle=orthogonalEdgeStyle;rounded=0;orthogonalLoop=1;jettySize=auto;html=1;exitX=1;exitY=0.5;exitDx=0;exitDy=0;entryX=0.25;entryY=0;entryDx=0;entryDy=0;endArrow=none;endFill=0;" edge="1" parent="1" source="wUgw2yBdjPY-ENgzMGJ1-4" target="wUgw2yBdjPY-ENgzMGJ1-2">
          <mxGeometry relative="1" as="geometry" />
        </mxCell>
        <mxCell id="wUgw2yBdjPY-ENgzMGJ1-4" value="Apellidos" style="ellipse;whiteSpace=wrap;html=1;align=center;fontSize=12;" vertex="1" parent="1">
          <mxGeometry y="480" width="80" height="40" as="geometry" />
        </mxCell>
        <mxCell id="wUgw2yBdjPY-ENgzMGJ1-10" style="edgeStyle=orthogonalEdgeStyle;rounded=0;orthogonalLoop=1;jettySize=auto;html=1;exitX=1;exitY=0.5;exitDx=0;exitDy=0;entryX=0;entryY=0.5;entryDx=0;entryDy=0;endArrow=none;endFill=0;" edge="1" parent="1" source="wUgw2yBdjPY-ENgzMGJ1-5" target="wUgw2yBdjPY-ENgzMGJ1-2">
          <mxGeometry relative="1" as="geometry" />
        </mxCell>
        <mxCell id="wUgw2yBdjPY-ENgzMGJ1-5" value="DNI" style="ellipse;whiteSpace=wrap;html=1;align=center;fontSize=12;" vertex="1" parent="1">
          <mxGeometry y="520" width="80" height="40" as="geometry" />
        </mxCell>
        <mxCell id="wUgw2yBdjPY-ENgzMGJ1-11" style="edgeStyle=orthogonalEdgeStyle;rounded=0;orthogonalLoop=1;jettySize=auto;html=1;exitX=1;exitY=0.5;exitDx=0;exitDy=0;entryX=0.25;entryY=1;entryDx=0;entryDy=0;endArrow=none;endFill=0;" edge="1" parent="1" source="wUgw2yBdjPY-ENgzMGJ1-6" target="wUgw2yBdjPY-ENgzMGJ1-2">
          <mxGeometry relative="1" as="geometry" />
        </mxCell>
        <mxCell id="wUgw2yBdjPY-ENgzMGJ1-6" value="Dirección" style="ellipse;whiteSpace=wrap;html=1;align=center;fontSize=12;" vertex="1" parent="1">
          <mxGeometry y="560" width="80" height="40" as="geometry" />
        </mxCell>
        <mxCell id="wUgw2yBdjPY-ENgzMGJ1-12" style="edgeStyle=orthogonalEdgeStyle;rounded=0;orthogonalLoop=1;jettySize=auto;html=1;entryX=0.5;entryY=1;entryDx=0;entryDy=0;endArrow=none;endFill=0;" edge="1" parent="1" source="wUgw2yBdjPY-ENgzMGJ1-7" target="wUgw2yBdjPY-ENgzMGJ1-2">
          <mxGeometry relative="1" as="geometry" />
        </mxCell>
        <mxCell id="wUgw2yBdjPY-ENgzMGJ1-7" value="Fecha nacimiento" style="ellipse;whiteSpace=wrap;html=1;align=center;fontSize=12;" vertex="1" parent="1">
          <mxGeometry y="600" width="80" height="40" as="geometry" />
        </mxCell>
        <mxCell id="wUgw2yBdjPY-ENgzMGJ1-14" style="edgeStyle=orthogonalEdgeStyle;rounded=0;orthogonalLoop=1;jettySize=auto;html=1;entryX=0.75;entryY=0;entryDx=0;entryDy=0;endArrow=none;endFill=0;" edge="1" parent="1" source="wUgw2yBdjPY-ENgzMGJ1-13" target="wUgw2yBdjPY-ENgzMGJ1-2">
          <mxGeometry relative="1" as="geometry" />
        </mxCell>
        <mxCell id="wUgw2yBdjPY-ENgzMGJ1-13" value="&lt;u&gt;idCliente&lt;/u&gt;" style="ellipse;whiteSpace=wrap;html=1;align=center;fontSize=12;" vertex="1" parent="1">
          <mxGeometry y="400" width="80" height="40" as="geometry" />
        </mxCell>
        <mxCell id="wUgw2yBdjPY-ENgzMGJ1-15" value="Producto" style="whiteSpace=wrap;html=1;fontSize=16;" vertex="1" parent="1">
          <mxGeometry x="560" y="520" width="80" height="40" as="geometry" />
        </mxCell>
        <mxCell id="wUgw2yBdjPY-ENgzMGJ1-21" style="edgeStyle=orthogonalEdgeStyle;rounded=0;orthogonalLoop=1;jettySize=auto;html=1;endArrow=none;endFill=0;" edge="1" parent="1" source="wUgw2yBdjPY-ENgzMGJ1-16">
          <mxGeometry relative="1" as="geometry">
            <mxPoint x="600" y="560" as="targetPoint" />
            <Array as="points">
              <mxPoint x="600" y="580" />
            </Array>
          </mxGeometry>
        </mxCell>
        <mxCell id="wUgw2yBdjPY-ENgzMGJ1-16" value="Nombre" style="ellipse;whiteSpace=wrap;html=1;align=center;fontSize=12;" vertex="1" parent="1">
          <mxGeometry x="680" y="560" width="80" height="40" as="geometry" />
        </mxCell>
        <mxCell id="wUgw2yBdjPY-ENgzMGJ1-20" style="edgeStyle=orthogonalEdgeStyle;rounded=0;orthogonalLoop=1;jettySize=auto;html=1;exitX=0;exitY=0.5;exitDx=0;exitDy=0;entryX=0.75;entryY=0;entryDx=0;entryDy=0;endArrow=none;endFill=0;" edge="1" parent="1" source="wUgw2yBdjPY-ENgzMGJ1-17" target="wUgw2yBdjPY-ENgzMGJ1-15">
          <mxGeometry relative="1" as="geometry" />
        </mxCell>
        <mxCell id="wUgw2yBdjPY-ENgzMGJ1-17" value="&lt;u&gt;Código&lt;/u&gt;" style="ellipse;whiteSpace=wrap;html=1;align=center;fontSize=12;" vertex="1" parent="1">
          <mxGeometry x="680" y="480" width="80" height="40" as="geometry" />
        </mxCell>
        <mxCell id="wUgw2yBdjPY-ENgzMGJ1-19" style="edgeStyle=orthogonalEdgeStyle;rounded=0;orthogonalLoop=1;jettySize=auto;html=1;endArrow=none;endFill=0;" edge="1" parent="1" source="wUgw2yBdjPY-ENgzMGJ1-18" target="wUgw2yBdjPY-ENgzMGJ1-15">
          <mxGeometry relative="1" as="geometry" />
        </mxCell>
        <mxCell id="wUgw2yBdjPY-ENgzMGJ1-18" value="Precio" style="ellipse;whiteSpace=wrap;html=1;align=center;fontSize=12;" vertex="1" parent="1">
          <mxGeometry x="680" y="520" width="80" height="40" as="geometry" />
        </mxCell>
        <mxCell id="wUgw2yBdjPY-ENgzMGJ1-22" value="Proveedor" style="whiteSpace=wrap;html=1;fontSize=16;" vertex="1" parent="1">
          <mxGeometry x="560" y="240" width="80" height="40" as="geometry" />
        </mxCell>
        <mxCell id="wUgw2yBdjPY-ENgzMGJ1-27" style="edgeStyle=orthogonalEdgeStyle;rounded=0;orthogonalLoop=1;jettySize=auto;html=1;exitX=0;exitY=0.5;exitDx=0;exitDy=0;endArrow=none;endFill=0;" edge="1" parent="1" source="wUgw2yBdjPY-ENgzMGJ1-23">
          <mxGeometry relative="1" as="geometry">
            <mxPoint x="630" y="240" as="targetPoint" />
            <Array as="points">
              <mxPoint x="630" y="220" />
            </Array>
          </mxGeometry>
        </mxCell>
        <mxCell id="wUgw2yBdjPY-ENgzMGJ1-23" value="&lt;u&gt;CUIT&lt;/u&gt;" style="ellipse;whiteSpace=wrap;html=1;align=center;fontSize=12;" vertex="1" parent="1">
          <mxGeometry x="680" y="200" width="80" height="40" as="geometry" />
        </mxCell>
        <mxCell id="wUgw2yBdjPY-ENgzMGJ1-24" value="Nombre" style="ellipse;whiteSpace=wrap;html=1;align=center;fontSize=12;" vertex="1" parent="1">
          <mxGeometry x="680" y="240" width="80" height="40" as="geometry" />
        </mxCell>
        <mxCell id="wUgw2yBdjPY-ENgzMGJ1-25" value="" style="edgeStyle=orthogonalEdgeStyle;rounded=0;orthogonalLoop=1;jettySize=auto;html=1;endArrow=none;endFill=0;" edge="1" parent="1" source="wUgw2yBdjPY-ENgzMGJ1-22" target="wUgw2yBdjPY-ENgzMGJ1-24">
          <mxGeometry relative="1" as="geometry" />
        </mxCell>
        <mxCell id="wUgw2yBdjPY-ENgzMGJ1-28" style="edgeStyle=orthogonalEdgeStyle;rounded=0;orthogonalLoop=1;jettySize=auto;html=1;exitX=0;exitY=0.5;exitDx=0;exitDy=0;endArrow=none;endFill=0;entryX=0.875;entryY=0.991;entryDx=0;entryDy=0;entryPerimeter=0;" edge="1" parent="1" source="wUgw2yBdjPY-ENgzMGJ1-26" target="wUgw2yBdjPY-ENgzMGJ1-22">
          <mxGeometry relative="1" as="geometry">
            <mxPoint x="630" y="281" as="targetPoint" />
            <Array as="points">
              <mxPoint x="630" y="300" />
            </Array>
          </mxGeometry>
        </mxCell>
        <mxCell id="wUgw2yBdjPY-ENgzMGJ1-26" value="Dirección" style="ellipse;whiteSpace=wrap;html=1;align=center;fontSize=12;" vertex="1" parent="1">
          <mxGeometry x="680" y="280" width="80" height="40" as="geometry" />
        </mxCell>
        <mxCell id="wUgw2yBdjPY-ENgzMGJ1-31" style="edgeStyle=orthogonalEdgeStyle;rounded=0;orthogonalLoop=1;jettySize=auto;html=1;endArrow=none;endFill=0;" edge="1" parent="1" source="wUgw2yBdjPY-ENgzMGJ1-29" target="wUgw2yBdjPY-ENgzMGJ1-15">
          <mxGeometry relative="1" as="geometry" />
        </mxCell>
        <mxCell id="wUgw2yBdjPY-ENgzMGJ1-29" value="Compra" style="shape=rhombus;perimeter=rhombusPerimeter;whiteSpace=wrap;html=1;align=center;fontSize=12;" vertex="1" parent="1">
          <mxGeometry x="360" y="520" width="80" height="40" as="geometry" />
        </mxCell>
        <mxCell id="wUgw2yBdjPY-ENgzMGJ1-33" value="" style="edgeStyle=orthogonalEdgeStyle;rounded=0;orthogonalLoop=1;jettySize=auto;html=1;endArrow=none;endFill=0;" edge="1" parent="1" source="wUgw2yBdjPY-ENgzMGJ1-32" target="wUgw2yBdjPY-ENgzMGJ1-22">
          <mxGeometry relative="1" as="geometry" />
        </mxCell>
        <mxCell id="wUgw2yBdjPY-ENgzMGJ1-34" style="edgeStyle=orthogonalEdgeStyle;rounded=0;orthogonalLoop=1;jettySize=auto;html=1;exitX=0.5;exitY=1;exitDx=0;exitDy=0;entryX=0.5;entryY=0;entryDx=0;entryDy=0;endArrow=none;endFill=0;" edge="1" parent="1" source="wUgw2yBdjPY-ENgzMGJ1-32" target="wUgw2yBdjPY-ENgzMGJ1-15">
          <mxGeometry relative="1" as="geometry" />
        </mxCell>
        <mxCell id="wUgw2yBdjPY-ENgzMGJ1-32" value="Suministra" style="shape=rhombus;perimeter=rhombusPerimeter;whiteSpace=wrap;html=1;align=center;fontSize=12;" vertex="1" parent="1">
          <mxGeometry x="560" y="360" width="80" height="40" as="geometry" />
        </mxCell>
        <mxCell id="wUgw2yBdjPY-ENgzMGJ1-35" value="N" style="resizable=0;html=1;align=right;verticalAlign=bottom;fontSize=12;" connectable="0" vertex="1" parent="1">
          <mxGeometry x="1" relative="1" as="geometry">
            <mxPoint x="530" y="540" as="offset" />
          </mxGeometry>
        </mxCell>
        <mxCell id="wUgw2yBdjPY-ENgzMGJ1-36" value="M" style="resizable=0;html=1;align=left;verticalAlign=bottom;fontSize=12;" connectable="0" vertex="1" parent="1">
          <mxGeometry x="-1" relative="1" as="geometry">
            <mxPoint x="260" y="540" as="offset" />
          </mxGeometry>
        </mxCell>
        <mxCell id="wUgw2yBdjPY-ENgzMGJ1-37" value="1" style="text;html=1;align=center;verticalAlign=middle;resizable=0;points=[];autosize=1;strokeColor=none;fillColor=none;fontSize=12;" vertex="1" parent="1">
          <mxGeometry x="580" y="300" width="20" height="20" as="geometry" />
        </mxCell>
        <mxCell id="wUgw2yBdjPY-ENgzMGJ1-38" value="N" style="resizable=0;html=1;align=right;verticalAlign=bottom;fontSize=12;" connectable="0" vertex="1" parent="1">
          <mxGeometry x="1" relative="1" as="geometry">
            <mxPoint x="590" y="500" as="offset" />
          </mxGeometry>
        </mxCell>
        <mxCell id="wUgw2yBdjPY-ENgzMGJ1-39" value="&lt;div style=&quot;font-size: 14px&quot; align=&quot;left&quot;&gt;&lt;font style=&quot;font-size: 14px&quot;&gt;Modelo relacional:&lt;/font&gt;&lt;/div&gt;&lt;div style=&quot;font-size: 14px&quot; align=&quot;left&quot;&gt;&lt;font style=&quot;font-size: 14px&quot;&gt;&lt;br&gt;&lt;/font&gt;&lt;/div&gt;&lt;div style=&quot;font-size: 14px&quot; align=&quot;left&quot;&gt;&lt;font style=&quot;font-size: 14px&quot;&gt;Cliente(&lt;span style=&quot;background-color: rgb(255 , 217 , 102)&quot;&gt;idCliente&lt;/span&gt;, Nombre, Apellidos, DNI, Dirección, Fecha_de_nacimiento)&lt;/font&gt;&lt;/div&gt;&lt;div style=&quot;font-size: 14px&quot; align=&quot;left&quot;&gt;&lt;font style=&quot;font-size: 14px&quot;&gt;Proveedor(&lt;span style=&quot;background-color: rgb(255 , 217 , 102)&quot;&gt;CUIT&lt;/span&gt;, Nombre, Dirección)&lt;/font&gt;&lt;/div&gt;&lt;div style=&quot;font-size: 14px&quot; align=&quot;left&quot;&gt;&lt;font style=&quot;font-size: 14px&quot;&gt;Producto(&lt;span style=&quot;background-color: rgb(255 , 217 , 102)&quot;&gt;Código&lt;/span&gt;, Precio, Nombre, &lt;u&gt;CUIT_proveedor&lt;/u&gt;)&lt;br&gt;&lt;/font&gt;&lt;/div&gt;&lt;div style=&quot;font-size: 14px&quot; align=&quot;left&quot;&gt;&lt;font style=&quot;font-size: 14px&quot;&gt;Compra(&lt;span style=&quot;background-color: rgb(255 , 217 , 102)&quot;&gt;&lt;u&gt;idCliente&lt;/u&gt;&lt;/span&gt;, &lt;span style=&quot;background-color: rgb(255 , 217 , 102)&quot;&gt;&lt;u&gt;código_producto&lt;/u&gt;&lt;/span&gt;)&lt;br&gt;&lt;/font&gt;&lt;/div&gt;&lt;div style=&quot;font-size: 14px&quot; align=&quot;left&quot;&gt;&lt;font style=&quot;font-size: 14px&quot;&gt;&lt;br&gt;&lt;/font&gt;&lt;/div&gt;&lt;div style=&quot;font-size: 14px&quot; align=&quot;left&quot;&gt;&lt;font style=&quot;font-size: 14px&quot;&gt;Restricciones adicionales:&lt;br&gt;&lt;/font&gt;&lt;/div&gt;&lt;div style=&quot;font-size: 14px&quot; align=&quot;left&quot;&gt;&lt;font style=&quot;font-size: 14px&quot;&gt;* Proveedor.CUIT debe estar en Producto.CUIT_proveedor&lt;/font&gt;&lt;/div&gt;&lt;div style=&quot;font-size: 14px&quot; align=&quot;left&quot;&gt;&lt;font style=&quot;font-size: 14px&quot;&gt;* Producto.CUIT_proveedor debe estar en Proveedor.CUIT&lt;/font&gt;&lt;/div&gt;&lt;div style=&quot;font-size: 14px&quot; align=&quot;left&quot;&gt;&lt;font style=&quot;font-size: 14px&quot;&gt;&lt;br&gt;&lt;/font&gt;&lt;/div&gt;&lt;div style=&quot;font-size: 14px&quot; align=&quot;left&quot;&gt;&lt;font style=&quot;font-size: 14px&quot;&gt;* Cliente.idCliente debe estar en Compra.idCliente&lt;/font&gt;&lt;/div&gt;&lt;div style=&quot;font-size: 14px&quot; align=&quot;left&quot;&gt;&lt;div style=&quot;font-size: 14px&quot; align=&quot;left&quot;&gt;&lt;font style=&quot;font-size: 14px&quot;&gt;* Compra.idCliente debe estar en Cliente.idCliente&lt;/font&gt;&lt;/div&gt;&lt;div style=&quot;font-size: 14px&quot; align=&quot;left&quot;&gt;&lt;font style=&quot;font-size: 14px&quot;&gt;&lt;br&gt;&lt;/font&gt;&lt;/div&gt;&lt;font style=&quot;font-size: 14px&quot;&gt;&lt;/font&gt;&lt;/div&gt;&lt;div style=&quot;font-size: 14px&quot; align=&quot;left&quot;&gt;&lt;font style=&quot;font-size: 14px&quot;&gt;* Producto.Codigo debe estar en Compra.código_producto&lt;br&gt;&lt;/font&gt;&lt;/div&gt;&lt;div style=&quot;font-size: 14px&quot; align=&quot;left&quot;&gt;&lt;font style=&quot;font-size: 14px&quot;&gt;* Compra.código_producto debe estar en Producto.Código&lt;br&gt;&lt;/font&gt;&lt;/div&gt;&lt;div style=&quot;font-size: 14px&quot; align=&quot;left&quot;&gt;&lt;font style=&quot;font-size: 14px&quot;&gt;&lt;br&gt;&lt;/font&gt;&lt;/div&gt;&lt;div style=&quot;font-size: 14px&quot; align=&quot;left&quot;&gt;&lt;font style=&quot;font-size: 14px&quot;&gt;&lt;br&gt;&lt;/font&gt;&lt;/div&gt;" style="text;html=1;align=left;verticalAlign=middle;resizable=0;points=[];autosize=1;strokeColor=none;fillColor=none;" vertex="1" parent="1">
          <mxGeometry y="700" width="490" height="260" as="geometry" />
        </mxCell>
      </root>
    </mxGraphModel>
  </diagram>
</mxfile>
